ffmpeg version git-2026-04-19-de18feb Copyright (c) 2000-2026 the FFmpeg developers
  built with gcc 9 (Ubuntu 9.4.0-1ubuntu1~20.04.2)
  configuration: --enable-shared --enable-gpl --enable-libx264
  libavutil      60. 30.100 / 60. 30.100
  libavcodec     62. 30.100 / 62. 30.100
  libavformat    62. 13.102 / 62. 13.102
  libavdevice    62.  4.100 / 62.  4.100
  libavfilter    11. 15.101 / 11. 15.101
  libswscale      9.  7.100 /  9.  7.100
  libswresample   6.  4.100 /  6.  4.100
[in#0/x11grab @ 0x563f21b42c40] Stream #0: not enough frames to estimate rate; consider increasing probesize
Input #0, x11grab, from ':0.0+0,0':
  Duration: N/A, start: 1777446421.587393, bitrate: 3678192 kb/s
  Stream #0:0: Video: rawvideo (BGR[0] / 0x524742), bgr0, 2870x1602, 3678192 kb/s, 25 fps, 1000k tbr, 1000k tbn, start 1777446421.587393
Stream mapping:
  Stream #0:0 -> #0:0 (rawvideo (native) -> h264 (libx264))
[libx264 @ 0x563f21b50f00] using cpu capabilities: MMX2 SSE2Fast SSSE3 SSE4.2 AVX FMA3 BMI2 AVX2
[libx264 @ 0x563f21b50f00] profile High, level 5.0
[libx264 @ 0x563f21b50f00] 264 - core 155 r2917 0a84d98 - H.264/MPEG-4 AVC codec - Copyleft 2003-2018 - http://www.videolan.org/x264.html - options: cabac=1 ref=1 deblock=1:0:0 analyse=0x3:0x113 me=hex subme=2 psy=1 psy_rd=1.00:0.00 mixed_ref=0 me_range=16 chroma_me=1 trellis=0 8x8dct=1 cqm=0 deadzone=21,11 fast_pskip=1 chroma_qp_offset=0 threads=6 lookahead_threads=2 sliced_threads=0 nr=0 decimate=1 interlaced=0 bluray_compat=0 constrained_intra=0 bframes=3 b_pyramid=2 b_adapt=1 b_bias=0 direct=1 weightb=1 open_gop=0 weightp=1 keyint=250 keyint_min=25 scenecut=40 intra_refresh=0 rc_lookahead=10 rc=crf mbtree=1 crf=23.0 qcomp=0.60 qpmin=0 qpmax=69 qpstep=4 ip_ratio=1.40 aq=1:1.00
Output #0, matroska, to '/home/lmy/catkin_ws/recordings_tmp/exp_turncmp5_segment_v2/screen.mkv':
  Metadata:
    encoder         : Lavf62.13.102
  Stream #0:0: Video: h264 (H264 / 0x34363248), yuv420p(tv, progressive), 2870x1602, q=2-31, 25 fps, 1k tbn
    Metadata:
      encoder         : Lavc62.30.100 libx264
    Side data:
      CPB properties: bitrate max/min/avg: 0/0/0 buffer size: 0 vbv_delay: N/A
frame=    0 fps=0.0 q=0.0 size=       0KiB time=N/A bitrate=N/A speed=N/A elapsed=0:00:00.50    frame=    6 fps=6.0 q=28.0 size=       1KiB time=00:00:00.16 bitrate=  29.7kbits/s speed=0.16x elapsed=0:00:01.00    frame=   18 fps= 12 q=28.0 size=       1KiB time=00:00:00.68 bitrate=   7.0kbits/s speed=0.452x elapsed=0:00:01.50    frame=   31 fps= 15 q=28.0 size=       1KiB time=00:00:01.16 bitrate=   4.1kbits/s speed=0.579x elapsed=0:00:02.00    frame=   43 fps= 17 q=28.0 size=       1KiB time=00:00:01.68 bitrate=   2.8kbits/s speed=0.671x elapsed=0:00:02.50    frame=   56 fps= 19 q=28.0 size=       1KiB time=00:00:02.16 bitrate=   2.2kbits/s speed=0.719x elapsed=0:00:03.00    frame=   68 fps= 19 q=28.0 size=       1KiB time=00:00:02.64 bitrate=   1.8kbits/s speed=0.753x elapsed=0:00:03.50    frame=   81 fps= 20 q=28.0 size=       1KiB time=00:00:03.16 bitrate=   1.5kbits/s speed=0.789x elapsed=0:00:04.00    frame=   93 fps= 21 q=28.0 size=       1KiB time=00:00:03.68 bitrate=   1.3kbits/s speed=0.817x elapsed=0:00:04.50    frame=  106 fps= 21 q=28.0 size=       1KiB time=00:00:04.16 bitrate=   1.1kbits/s speed=0.831x elapsed=0:00:05.00    frame=  118 fps= 21 q=28.0 size=       1KiB time=00:00:04.64 bitrate=   1.0kbits/s speed=0.843x elapsed=0:00:05.50    frame=  131 fps= 22 q=28.0 size=     154KiB time=00:00:05.20 bitrate= 243.3kbits/s speed=0.866x elapsed=0:00:06.00    frame=  143 fps= 22 q=28.0 size=     154KiB time=00:00:05.68 bitrate= 222.8kbits/s speed=0.872x elapsed=0:00:06.51    frame=  156 fps= 22 q=28.0 size=     154KiB time=00:00:06.16 bitrate= 205.4kbits/s speed=0.878x elapsed=0:00:07.01    frame=  169 fps= 22 q=28.0 size=     154KiB time=00:00:06.72 bitrate= 188.3kbits/s speed=0.894x elapsed=0:00:07.51    frame=  181 fps= 23 q=28.0 size=     154KiB time=00:00:07.16 bitrate= 176.7kbits/s speed=0.893x elapsed=0:00:08.01    frame=  194 fps= 23 q=28.0 size=     154KiB time=00:00:07.72 bitrate= 163.9kbits/s speed=0.907x elapsed=0:00:08.51    frame=  206 fps= 23 q=28.0 size=     154KiB time=00:00:08.16 bitrate= 155.1kbits/s speed=0.905x elapsed=0:00:09.01    frame=  218 fps= 23 q=28.0 size=     154KiB time=00:00:08.68 bitrate= 145.8kbits/s speed=0.912x elapsed=0:00:09.51    frame=  231 fps= 23 q=28.0 size=     154KiB time=00:00:09.20 bitrate= 137.5kbits/s speed=0.919x elapsed=0:00:10.01    frame=  243 fps= 23 q=28.0 size=     154KiB time=00:00:09.68 bitrate= 130.7kbits/s speed=0.92x elapsed=0:00:10.52    frame=  256 fps= 23 q=28.0 size=     256KiB time=00:00:10.16 bitrate= 206.4kbits/s speed=0.922x elapsed=0:00:11.02    frame=  268 fps= 23 q=28.0 size=     256KiB time=00:00:10.68 bitrate= 196.4kbits/s speed=0.927x elapsed=0:00:11.52    frame=  281 fps= 23 q=28.0 size=     256KiB time=00:00:11.16 bitrate= 187.9kbits/s speed=0.928x elapsed=0:00:12.02    frame=  294 fps= 23 q=28.0 size=     256KiB time=00:00:11.68 bitrate= 179.6kbits/s speed=0.933x elapsed=0:00:12.52    frame=  306 fps= 23 q=28.0 size=     256KiB time=00:00:12.16 bitrate= 172.5kbits/s speed=0.933x elapsed=0:00:13.02    frame=  319 fps= 24 q=28.0 size=     256KiB time=00:00:12.72 bitrate= 164.9kbits/s speed=0.94x elapsed=0:00:13.52    frame=  331 fps= 24 q=28.0 size=     256KiB time=00:00:13.20 bitrate= 158.9kbits/s speed=0.941x elapsed=0:00:14.02    frame=  344 fps= 24 q=28.0 size=     256KiB time=00:00:13.72 bitrate= 152.9kbits/s speed=0.944x elapsed=0:00:14.52    frame=  356 fps= 24 q=28.0 size=     256KiB time=00:00:14.16 bitrate= 148.1kbits/s speed=0.942x elapsed=0:00:15.03    frame=  369 fps= 24 q=28.0 size=     256KiB time=00:00:14.72 bitrate= 142.5kbits/s speed=0.948x elapsed=0:00:15.53    frame=  381 fps= 24 q=28.0 size=     512KiB time=00:00:15.16 bitrate= 276.7kbits/s speed=0.946x elapsed=0:00:16.03    frame=  394 fps= 24 q=28.0 size=     512KiB time=00:00:15.72 bitrate= 266.8kbits/s speed=0.951x elapsed=0:00:16.53    frame=  406 fps= 24 q=28.0 size=     512KiB time=00:00:16.16 bitrate= 259.5kbits/s speed=0.949x elapsed=0:00:17.03    frame=  419 fps= 24 q=28.0 size=     512KiB time=00:00:16.72 bitrate= 250.9kbits/s speed=0.954x elapsed=0:00:17.53    frame=  431 fps= 24 q=28.0 size=     512KiB time=00:00:17.16 bitrate= 244.4kbits/s speed=0.952x elapsed=0:00:18.03    frame=  443 fps= 24 q=28.0 size=     512KiB time=00:00:17.68 bitrate= 237.2kbits/s speed=0.954x elapsed=0:00:18.53    frame=  456 fps= 24 q=28.0 size=     512KiB time=00:00:18.16 bitrate= 231.0kbits/s speed=0.954x elapsed=0:00:19.03    frame=  469 fps= 24 q=28.0 size=     512KiB time=00:00:18.68 bitrate= 224.5kbits/s speed=0.956x elapsed=0:00:19.53    frame=  482 fps= 24 q=28.0 size=     512KiB time=00:00:19.20 bitrate= 218.5kbits/s speed=0.958x elapsed=0:00:20.03    frame=  494 fps= 24 q=28.0 size=     512KiB time=00:00:19.68 bitrate= 213.1kbits/s speed=0.958x elapsed=0:00:20.53    frame=  507 fps= 24 q=28.0 size=     512KiB time=00:00:20.24 bitrate= 207.2kbits/s speed=0.962x elapsed=0:00:21.03    frame=  519 fps= 24 q=28.0 size=     512KiB time=00:00:20.72 bitrate= 202.4kbits/s speed=0.962x elapsed=0:00:21.53    frame=  532 fps= 24 q=28.0 size=     512KiB time=00:00:21.20 bitrate= 197.8kbits/s speed=0.962x elapsed=0:00:22.03    frame=  544 fps= 24 q=28.0 size=     512KiB time=00:00:21.68 bitrate= 193.5kbits/s speed=0.962x elapsed=0:00:22.53    frame=  557 fps= 24 q=28.0 size=     512KiB time=00:00:22.24 bitrate= 188.6kbits/s speed=0.965x elapsed=0:00:23.03    frame=  569 fps= 24 q=28.0 size=     512KiB time=00:00:22.68 bitrate= 184.9kbits/s speed=0.964x elapsed=0:00:23.53    frame=  581 fps= 24 q=28.0 size=     512KiB time=00:00:23.20 bitrate= 180.8kbits/s speed=0.965x elapsed=0:00:24.03    frame=  594 fps= 24 q=28.0 size=     512KiB time=00:00:23.68 bitrate= 177.1kbits/s speed=0.965x elapsed=0:00:24.53    frame=  607 fps= 24 q=28.0 size=     512KiB time=00:00:24.24 bitrate= 173.0kbits/s speed=0.968x elapsed=0:00:25.04    frame=  619 fps= 24 q=28.0 size=     512KiB time=00:00:24.68 bitrate= 169.9kbits/s speed=0.966x elapsed=0:00:25.54    frame=  632 fps= 24 q=28.0 size=     768KiB time=00:00:25.20 bitrate= 249.7kbits/s speed=0.968x elapsed=0:00:26.04    frame=  644 fps= 24 q=28.0 size=     768KiB time=00:00:25.68 bitrate= 245.0kbits/s speed=0.967x elapsed=0:00:26.54    frame=  657 fps= 24 q=28.0 size=     768KiB time=00:00:26.24 bitrate= 239.8kbits/s speed=0.97x elapsed=0:00:27.04    frame=  669 fps= 24 q=28.0 size=     768KiB time=00:00:26.68 bitrate= 235.8kbits/s speed=0.969x elapsed=0:00:27.54    frame=  682 fps= 24 q=28.0 size=     768KiB time=00:00:27.24 bitrate= 231.0kbits/s speed=0.971x elapsed=0:00:28.04    frame=  694 fps= 24 q=28.0 size=     768KiB time=00:00:27.72 bitrate= 227.0kbits/s speed=0.971x elapsed=0:00:28.55    frame=  707 fps= 24 q=28.0 size=     768KiB time=00:00:28.20 bitrate= 223.1kbits/s speed=0.971x elapsed=0:00:29.05    frame=  719 fps= 24 q=28.0 size=     768KiB time=00:00:28.68 bitrate= 219.4kbits/s speed=0.971x elapsed=0:00:29.55    frame=  732 fps= 24 q=28.0 size=     768KiB time=00:00:29.20 bitrate= 215.5kbits/s speed=0.972x elapsed=0:00:30.05    frame=  744 fps= 24 q=28.0 size=     768KiB time=00:00:29.72 bitrate= 211.7kbits/s speed=0.973x elapsed=0:00:30.55    frame=  757 fps= 24 q=28.0 size=    1024KiB time=00:00:30.20 bitrate= 277.8kbits/s speed=0.973x elapsed=0:00:31.05    frame=  769 fps= 24 q=28.0 size=    1024KiB time=00:00:30.68 bitrate= 273.4kbits/s speed=0.972x elapsed=0:00:31.55    frame=  782 fps= 24 q=28.0 size=    1024KiB time=00:00:31.24 bitrate= 268.5kbits/s speed=0.975x elapsed=0:00:32.05    frame=  794 fps= 24 q=28.0 size=    1024KiB time=00:00:31.72 bitrate= 264.5kbits/s speed=0.974x elapsed=0:00:32.55    frame=  807 fps= 24 q=28.0 size=    1024KiB time=00:00:32.20 bitrate= 260.5kbits/s speed=0.974x elapsed=0:00:33.05    frame=  819 fps= 24 q=28.0 size=    1024KiB time=00:00:32.68 bitrate= 256.7kbits/s speed=0.974x elapsed=0:00:33.55    frame=  832 fps= 24 q=28.0 size=    1024KiB time=00:00:33.20 bitrate= 252.7kbits/s speed=0.975x elapsed=0:00:34.05    frame=  844 fps= 24 q=28.0 size=    1024KiB time=00:00:33.68 bitrate= 249.1kbits/s speed=0.975x elapsed=0:00:34.55    frame=  857 fps= 24 q=28.0 size=    1024KiB time=00:00:34.20 bitrate= 245.3kbits/s speed=0.976x elapsed=0:00:35.05    frame=  870 fps= 24 q=28.0 size=    1024KiB time=00:00:34.72 bitrate= 241.6kbits/s speed=0.976x elapsed=0:00:35.55    frame=  882 fps= 24 q=28.0 size=    1280KiB time=00:00:35.24 bitrate= 297.6kbits/s speed=0.977x elapsed=0:00:36.05    frame=  895 fps= 24 q=28.0 size=    1280KiB time=00:00:35.72 bitrate= 293.6kbits/s speed=0.977x elapsed=0:00:36.55    [out#0/matroska @ 0x563f21b4f500] video:1331KiB audio:0KiB subtitle:0KiB other streams:0KiB global headers:0KiB muxing overhead: 0.536021%
frame=  927 fps= 25 q=-1.0 Lsize=    1338KiB time=00:00:37.00 bitrate= 296.3kbits/s speed=0.995x elapsed=0:00:37.18    
[libx264 @ 0x563f21b50f00] frame I:4     Avg QP:11.55  size:108078
[libx264 @ 0x563f21b50f00] frame P:233   Avg QP:16.50  size:  2096
[libx264 @ 0x563f21b50f00] frame B:690   Avg QP:24.14  size:   640
[libx264 @ 0x563f21b50f00] consecutive B-frames:  0.8%  0.0%  0.0% 99.2%
[libx264 @ 0x563f21b50f00] mb I  I16..4: 89.4%  2.4%  8.2%
[libx264 @ 0x563f21b50f00] mb P  I16..4:  0.4%  0.1%  0.0%  P16..4:  0.3%  0.2%  0.1%  0.0%  0.0%    skip:98.9%
[libx264 @ 0x563f21b50f00] mb B  I16..4:  0.0%  0.0%  0.0%  B16..8:  0.3%  0.1%  0.0%  direct: 0.1%  skip:99.4%  L0:45.5% L1:46.5% BI: 8.1%
[libx264 @ 0x563f21b50f00] 8x8 transform intra:4.7% inter:1.6%
[libx264 @ 0x563f21b50f00] coded y,uvDC,uvAC intra: 11.8% 19.1% 15.1% inter: 0.1% 0.1% 0.1%
[libx264 @ 0x563f21b50f00] i16 v,h,dc,p: 69% 29%  2%  0%
[libx264 @ 0x563f21b50f00] i8 v,h,dc,ddl,ddr,vr,hd,vl,hu: 13% 11% 69%  1%  2%  3%  1%  1%  1%
[libx264 @ 0x563f21b50f00] i4 v,h,dc,ddl,ddr,vr,hd,vl,hu: 28% 25% 26%  3%  3%  4%  3%  7%  3%
[libx264 @ 0x563f21b50f00] i8c dc,h,v,p: 60% 31%  8%  1%
[libx264 @ 0x563f21b50f00] Weighted P-Frames: Y:0.0% UV:0.0%
[libx264 @ 0x563f21b50f00] kb/s:293.64
Exiting normally, received signal 2.
